<svg xmlns="http://www.w3.org/2000/svg" version="1.1" xmlns:xlink="http://www.w3.org/1999/xlink" xmlns:svgjs="http://svgjs.dev/svgjs" width="1500" height="1500" viewBox="0 0 1500 1500"><rect width="1500" height="1500" fill="#000000"></rect><g transform="matrix(0.6666666666666666,0,0,0.6666666666666666,249.85778443113782,249.85778443113765)"><svg viewBox="0 0 334 334" data-background-color="#f9e897" preserveAspectRatio="xMidYMid meet" height="1500" width="1500" xmlns="http://www.w3.org/2000/svg" xmlns:xlink="http://www.w3.org/1999/xlink"><g id="tight-bounds" transform="matrix(1,0,0,1,0.04749999999998522,0.04750000000001364)"><svg viewBox="0 0 333.90454557049503 333.90454557049503" height="333.90454557049503" width="333.90454557049503"><g><svg></svg></g><g><svg viewBox="0 0 333.90454557049503 333.90454557049503" height="333.90454557049503" width="333.90454557049503"><g><path d="M0 166.952c0-92.205 74.747-166.952 166.952-166.952 92.205 0 166.952 74.747 166.953 166.952 0 92.205-74.747 166.952-166.953 166.953-92.205 0-166.952-74.747-166.952-166.953zM166.952 327.306c88.561 0 160.354-71.793 160.354-160.354 0-88.561-71.793-160.354-160.354-160.354-88.561 0-160.354 71.793-160.354 160.354 0 88.561 71.793 160.354 160.354 160.354z" data-fill-palette-color="tertiary" fill="#ffffff" stroke="transparent"></path><ellipse rx="160.27418187383762" ry="160.27418187383762" cx="166.95227278524752" cy="166.95227278524752" fill="#ffffff" stroke="transparent" stroke-width="0" fill-opacity="1" data-fill-palette-color="tertiary"></ellipse></g><g transform="matrix(1,0,0,1,78.72348629084745,71.17305217166896)"><svg viewBox="0 0 176.45757298880014 191.55844122715712" height="191.55844122715712" width="176.45757298880014"><g><svg viewBox="0 0 176.45757298880014 191.55844122715712" height="191.55844122715712" width="176.45757298880014"><g><svg viewBox="0 0 213.15844122715714 231.40009263573208" height="191.55844122715712" width="176.45757298880014"><g transform="matrix(1,0,0,1,0,143.01454056018804)"><svg viewBox="0 0 213.15844122715714 88.38555207554404" height="88.38555207554404" width="213.15844122715714"><g id="textblocktransform"><svg viewBox="0 0 213.15844122715714 88.38555207554404" height="88.38555207554404" width="213.15844122715714" id="textblock"><g><svg viewBox="0 0 213.15844122715714 88.38555207554404" height="88.38555207554404" width="213.15844122715714"><g transform="matrix(1,0,0,1,0,0)"><svg width="213.15844122715714" viewBox="1.89375 -36.4 90.18715881151998 37.4" height="88.38555207554404" data-palette-color="#f9e897"><path d="M11.1-2.75L23.1-2.75 24.45-8.9Q25.05-9 25.4-8.97 25.75-8.95 26.25-8.75L26.25-8.75Q26.55-6.6 26.65-4.4 26.75-2.2 26.75 0L26.75 0 8.6 0Q7.2 0 5.28 0.08 3.35 0.15 1.95 0.25L1.95 0.25Q1.8-0.7 2.05-1.5L2.05-1.5Q3.15-1.75 4.13-1.95 5.1-2.15 5.85-2.5L5.85-2.5 5.85-32.5 2-33.5Q1.85-34.45 2.25-35.25L2.25-35.25Q3.6-35.2 5.28-35.1 6.95-35 8.35-35L8.35-35Q9.8-35 11.8-35.1 13.8-35.2 15.2-35.25L15.2-35.25Q15.35-34.3 15.1-33.5L15.1-33.5Q14.1-33.4 13.1-33.23 12.1-33.05 11.1-32.5L11.1-32.5 11.1-2.75ZM52.55-24.95L52.55-2.4Q53.4-1.9 54.3-1.75 55.2-1.6 56.05-1.4L56.05-1.4Q56.2-0.5 55.8 0.35L55.8 0.35Q55 0.5 53.92 0.6 52.85 0.7 51.7 0.7L51.7 0.7Q50.1 0.7 48.9 0.4L48.9 0.4 48.05-3.3 47.8-3.3Q45.25-1 43.07-0.1 40.9 0.8 38.35 0.8L38.35 0.8Q34.75 0.8 33.17-1.2 31.6-3.2 31.6-6.7L31.6-6.7 31.6-22 27.95-22.4Q27.8-23.4 28.2-24.15L28.2-24.15Q30-24.4 31.57-24.75 33.15-25.1 34.7-25.5L34.7-25.5Q35.2-25.45 35.65-25.33 36.1-25.2 36.6-24.95L36.6-24.95 36.6-7.45Q36.6-5.35 37.22-4.35 37.85-3.35 38.9-3.03 39.95-2.7 41.3-2.7L41.3-2.7Q42.9-2.7 44.65-3.65 46.4-4.6 47.55-5.9L47.55-5.9 47.55-22 43.9-22.4Q43.75-23.4 44.15-24.15L44.15-24.15Q45.95-24.4 47.52-24.75 49.1-25.1 50.65-25.5L50.65-25.5Q51.15-25.45 51.6-25.33 52.05-25.2 52.55-24.95L52.55-24.95ZM61.85-7.5L62.35-2.2Q63.4-1.7 64.47-1.5 65.55-1.3 66.9-1.3L66.9-1.3Q68.95-1.3 70.55-2.2 72.15-3.1 72.15-5.1L72.15-5.1Q72.15-6.15 71.57-7.05 71-7.95 69.57-8.9 68.15-9.85 65.5-11.05L65.5-11.05Q62.6-12.4 61-14.18 59.4-15.95 59.4-19.1L59.4-19.1Q59.4-21.65 60.67-23.13 61.95-24.6 63.97-25.25 66-25.9 68.25-25.9L68.25-25.9Q70.2-25.9 72.12-25.53 74.05-25.15 75.55-24.5L75.55-24.5Q75.55-24.25 75.57-23.95 75.59-23.65 75.59-23.4L75.59-23.4Q75.59-20.35 74.65-17.65L74.65-17.65Q74.45-17.6 74.27-17.57 74.09-17.55 73.9-17.55L73.9-17.55Q73.15-17.55 72.4-17.85L72.4-17.85 71.59-23.25Q70.95-23.45 70.09-23.58 69.25-23.7 68.4-23.7L68.4-23.7Q67.25-23.7 66.12-23.38 65-23.05 64.27-22.28 63.55-21.5 63.55-20.1L63.55-20.1Q63.55-19.15 63.97-18.3 64.4-17.45 65.67-16.53 66.95-15.6 69.5-14.35L69.5-14.35Q73.5-12.45 75.12-10.68 76.75-8.9 76.75-6.25L76.75-6.25Q76.75-3.7 75.4-2.1 74.05-0.5 71.87 0.25 69.7 1 67.25 1L67.25 1Q64.9 1 62.87 0.63 60.85 0.25 58.8-1L58.8-1 58.8-1.85Q58.8-3.2 58.97-4.63 59.15-6.05 59.7-7.7L59.7-7.7Q60-7.75 60.2-7.75L60.2-7.75Q61.1-7.75 61.85-7.5L61.85-7.5ZM88.69-24.95L88.69-2.5 92.04-1.5Q92.19-0.55 91.79 0.25L91.79 0.25Q90.44 0.15 89.02 0.08 87.59 0 86.19 0L86.19 0Q84.79 0 83.14 0.08 81.49 0.15 80.09 0.25L80.09 0.25Q79.94-0.7 80.19-1.5L80.19-1.5Q81.14-1.75 82.07-1.95 82.99-2.15 83.69-2.5L83.69-2.5 83.69-22 79.54-22.4Q79.39-23.4 79.79-24.15L79.79-24.15Q81.59-24.4 83.42-24.75 85.24-25.1 86.79-25.5L86.79-25.5Q87.29-25.45 87.74-25.33 88.19-25.2 88.69-24.95L88.69-24.95ZM85.34-30.05L85.34-30.05Q84.49-30.05 83.79-30.6 83.09-31.15 82.69-31.95 82.29-32.75 82.29-33.45L82.29-33.45Q82.29-34.1 82.84-34.77 83.39-35.45 84.22-35.93 85.04-36.4 85.84-36.4L85.84-36.4Q86.74-36.4 87.44-35.83 88.14-35.25 88.52-34.48 88.89-33.7 88.89-33L88.89-33Q88.89-32.35 88.37-31.65 87.84-30.95 87.02-30.5 86.19-30.05 85.34-30.05Z" opacity="1" transform="matrix(1,0,0,1,0,0)" fill="#000000" class="wordmark-text-0" data-fill-palette-color="quaternary" id="text-0"></path></svg></g></svg></g></svg></g></svg></g><g transform="matrix(1,0,0,1,41.79051869902462,0)"><svg viewBox="0 0 129.5774038291079 122.14883296840189" height="122.14883296840189" width="129.5774038291079"><g><svg xmlns="http://www.w3.org/2000/svg" xmlns:xlink="http://www.w3.org/1999/xlink" version="1.1" x="0" y="0" viewBox="7.00578894734441 6.640192378864667 89.99774140591951 84.83824152722858" enable-background="new 0 0 100 100" xml:space="preserve" height="122.14883296840189" width="129.5774038291079" class="icon-icon-0" data-fill-palette-color="quaternary" id="icon-0"><g fill="#f9e897" data-fill-palette-color="quaternary"><g fill="#f9e897" data-fill-palette-color="quaternary"><path fill="#000000" d="M60.3 73.2C57.4 72.5 54.4 74.3 53.6 77.2L53.5 77.5C52.3 82.8 49.1 87.4 44.6 90.4 45.3 90.7 46.1 90.9 46.8 91.1 54.6 92.9 62.4 88.1 64.4 80.5L64.5 80.1C65.3 76.9 63.4 73.9 60.3 73.2" data-fill-palette-color="quaternary"></path><path fill="#000000" d="M53.5 60.5C54.9 60.3 56.4 60.3 58.2 60.5L59.4 60.7 59.6 58.6V58.5S59.6 58.2 59.8 57.5L60.2 56.2 58.9 56C57.6 55.8 56.4 55.7 55.3 55.7 52.9 55.7 50.7 56.1 48.6 57 42.5 59.6 40.8 66.3 39.3 72.1 38.8 73.9 38.4 75.7 37.8 77.2 36.2 81.5 32.8 83.9 28.5 83.9 27.4 83.9 26.2 83.7 25 83.4 19.8 82 16.2 77.3 13.9 73.8 9.6 65.1 12.8 55.3 16.5 46 20.3 36.3 24.8 26.4 33.9 21 40.8 16.9 50.4 16.6 62.1 20.2 67.5 21.8 72.2 24 76 26.7L77 27.4 79.4 23.3 78.5 22.7C73.6 19.3 67.5 16.6 60 14.7 49.9 12.1 40.4 12.6 32.7 16.3 23.6 20.7 18.4 30 14.5 38.6 8.9 51 3.8 64.1 9.5 75.7 9.6 75.9 9.6 76 9.7 76.1S9.9 76.4 10 76.5C13.7 82.1 20 88.8 28.4 88.8 29 88.8 29.6 88.8 30.2 88.7 40 87.6 42.4 79 44.5 71.5L44.9 70.1C46.5 64.2 49.2 61.3 53.5 60.5" data-fill-palette-color="quaternary"></path><path fill="#000000" d="M93.1 35.3C91.9 33.4 90.4 31.6 88.6 29.8L87.3 28.5 85.4 33.3 86 34C89.3 37.5 91.3 41.5 92.1 45.9 92.9 50.6 91.3 55.5 87.7 59.1 85.6 61.2 82.9 62.2 79.3 62.2 78.1 62.2 76.7 62.1 75.3 61.8L74.4 61.6 74 62.5C73.7 63.2 73.3 64 73 64.6L72.2 66 73.8 66.3C75.6 66.7 77.4 66.8 79 66.8 85 66.8 89.8 64.4 93.4 59.7 99.1 52.2 97.3 41.8 93.1 35.3" data-fill-palette-color="quaternary"></path><path fill="#000000" d="M72.7 61.3L87.2 24.4 88.4 21.3 93.6 8.2C93.7 8.1 93.6 7.9 93.5 7.8L92 6.7C91.8 6.6 91.6 6.6 91.5 6.9L85.3 17.3 83.8 19.9 62.5 55.5C62.2 56 61.7 57 61.4 57.9 61.2 58.6 61 59.2 60.9 59.7L60.7 60.7 59.2 68.3V68.4C59.1 69.4 59.7 70.7 60.5 71L63.7 72.8C64.5 73.2 65.6 73 66.3 72.2V72.1L70.1 66.2C70.3 66 70.6 65.4 71 64.7 71.5 63.8 72 62.7 72.3 61.9 72.5 61.8 72.6 61.5 72.7 61.3" data-fill-palette-color="quaternary"></path></g><circle fill="#000000" cx="25.1" cy="67.9" r="5.9" data-fill-palette-color="quaternary"></circle><circle fill="#000000" cx="30.9" cy="48.3" r="5.9" data-fill-palette-color="quaternary"></circle><circle fill="#000000" cx="42.3" cy="31.4" r="5.9" data-fill-palette-color="quaternary"></circle><circle fill="#000000" cx="61.4" cy="31.4" r="5.9" data-fill-palette-color="quaternary"></circle></g></svg></g></svg></g><g></g></svg></g></svg></g></svg></g></svg></g><defs></defs></svg><rect width="333.90454557049503" height="333.90454557049503" fill="none" stroke="none" visibility="hidden"></rect></g></svg></g></svg>